<?xml version="1.0" encoding="iso-8859-1"?>
<!-- Generator: Adobe Illustrator 19.0.0, SVG Export Plug-In . SVG Version: 6.00 Build 0)  -->
<svg xmlns="http://www.w3.org/2000/svg" xmlns:xlink="http://www.w3.org/1999/xlink" version="1.1" id="Layer_1" x="0px" y="0px" viewBox="0 0 512 512" style="enable-background:new 0 0 512 512;" xml:space="preserve" width="512" height="512">
<g>
	<rect x="120" y="249.988" width="30" height="30"/>
	<rect x="361" y="249.988" width="30" height="30"/>
	<path d="M466.409,64.547c-38.379,37.896-97.835,49.698-147.95,29.364c-1.262-0.25-54.432-26.344-117.888-1.722   c-0.896,0.087-87.69,42.933-155.435-27.25L0,18.178v106.311c0,23.51,10.76,44.681,27.986,58.499C9.832,206.465,0,235.088,0,265.316   v228.506l24.311-19.246c31.902-25.256,76.032-29.818,112.429-11.621c1.606,0.377,109.549,63.986,233.3,2.111   c0.109-0.02,62.357-34.264,117.65,9.51L512,493.822V265.248c-0.015-30.37-9.955-59.117-28.289-82.65   C502.123,167.831,512,146.232,512,124.488V19.102C492.48,38.622,482.781,48.381,466.409,64.547z M30,92.099   c45.66,42.405,111.403,55.226,170.019,32.484c4.777-0.998,49.848-26.134,105.098-3.71c1.383,0.343,43.331,20.525,97.553,9.778   c29.821-5.911,57.096-19.542,79.331-39.581v33.417c0,21.637-16.595,40.72-38.602,44.388   c-82.289,17.906-134.095,33.531-187.405,100.959c-75.274-95.003-179.014-97.803-188.392-100.959   C45.813,165.245,30,146.577,30,124.488V92.099z M421,265.316c0,24.813-20.187,45-45,45s-45-20.187-45-45   c0-22.686,13.364-34.303,30.162-42.489C390.441,212.6,421,234.478,421,265.316z M135,220.316c24.997,0,45,20.299,45,45   c0,24.813-20.187,45-45,45s-45-20.187-45-45S110.187,220.316,135,220.316z M190.744,315.428   C202.706,302.136,210,284.564,210,265.316c0-0.458-0.013-0.915-0.021-1.372c12.573,11.884,23.858,25.169,33.541,39.693L256,322.357   l12.48-18.721c9.449-14.174,20.39-27.164,32.527-38.824c-0.001,0.168-0.008,0.335-0.008,0.503c0,19.248,7.294,36.82,19.256,50.113   c-6.719,14.947-16.431,28.533-28.454,39.679L255.891,388.4l-36.752-33.347C207.144,343.917,197.453,330.351,190.744,315.428z    M55.372,196.871c2.384,0.642,4.815,1.184,7.298,1.597c21.428,3.603,23.624,3.86,29.853,5.082C72.896,217.09,60,239.721,60,265.316   c0,41.355,33.645,75,75,75c11.101,0,21.635-2.443,31.123-6.79c4.528,9.031,9.963,17.602,16.174,25.569   c-14.567,7.375-30.652,11.221-47.297,11.221c-57.897,0-105-47.103-105-105C30,239.877,38.952,215.899,55.372,196.871z M482,435.725   c-66.428-32.565-124.014,2.183-125.377,2.509c-108.902,54.451-205.062-1.779-206.468-2.111   C112.08,417.085,67.412,417.435,30,435.738v-85.674c24.769,30.628,62.633,50.251,105,50.251c24.442,0,47.944-6.472,68.686-18.776   l52.424,47.567l51.269-47.53c20.727,12.28,44.205,18.739,68.622,18.739c42.808,0,81.052-19.74,106-50.525V435.725z M482,265.316   c0,57.897-47.552,105-106,105c-16.646,0-32.73-3.846-47.297-11.221c6.211-7.967,11.646-16.538,16.174-25.569   c9.488,4.347,20.023,6.79,31.123,6.79c41.355,0,75-33.645,75-75c0-25.594-12.895-48.224-32.52-61.764   c14.611-2.878,28.937-4.375,37.948-6.913C472.976,215.705,482,239.774,482,265.316z"/>
</g>















</svg>
